<?xml version="1.0" standalone="no"?>
<!DOCTYPE svg PUBLIC "-//W3C//DTD SVG 20010904//EN"
 "http://www.w3.org/TR/2001/REC-SVG-20010904/DTD/svg10.dtd">
<svg version="1.0" xmlns="http://www.w3.org/2000/svg"
 width="700.000000pt" height="700.000000pt" viewBox="0 0 700.000000 700.000000"
 preserveAspectRatio="xMidYMid meet">
<metadata>
Created by potrace 1.11, written by Peter Selinger 2001-2013
</metadata>
<g transform="translate(0.000000,700.000000) scale(0.100000,-0.100000)"
fill="#000000" stroke="none">
<path d="M4334 6779 c-75 -10 -139 -42 -193 -98 -68 -69 -94 -141 -89 -241 5
-118 61 -212 157 -267 25 -15 48 -30 51 -34 3 -4 5 -70 5 -145 l0 -138 -145
-97 c-80 -53 -153 -108 -164 -122 -15 -21 -18 -44 -19 -148 l-1 -124 110 -3
110 -3 -1 76 c-1 41 2 79 5 83 3 4 71 52 152 106 96 64 151 107 160 126 10 21
13 75 13 209 l-1 181 52 30 c217 122 219 439 3 568 -51 30 -144 49 -205 41z
m122 -255 c28 -35 34 -63 20 -104 -20 -60 -85 -89 -143 -65 -78 33 -90 142
-20 186 46 29 113 21 143 -17z"/>
<path d="M440 6764 c-75 -27 -142 -84 -180 -155 -32 -59 -35 -71 -35 -154 0
-74 4 -98 23 -137 30 -59 85 -118 143 -151 l46 -27 0 -179 c0 -119 4 -190 12
-209 10 -23 84 -78 329 -241 l317 -211 -1 -80 -1 -80 109 0 c105 0 108 1 109
23 5 127 -2 232 -16 253 -14 22 -454 325 -482 332 -7 2 -13 8 -13 13 0 5 -5 9
-10 9 -11 0 -120 77 -130 91 -11 15 -4 283 7 286 33 11 104 66 135 104 129
162 76 405 -109 495 -70 35 -184 43 -253 18z m160 -219 c76 -39 71 -148 -8
-189 -50 -26 -123 0 -142 50 -40 103 54 189 150 139z"/>
<path d="M1660 6771 c-90 -29 -174 -104 -212 -189 -33 -73 -31 -191 5 -263 33
-68 91 -129 146 -153 l41 -19 0 -131 c0 -85 5 -140 13 -156 11 -23 96 -91 330
-265 l95 -70 0 -160 c0 -88 1 -175 1 -192 l1 -33 108 0 109 0 0 229 c0 176 -3
236 -13 258 -9 17 -77 74 -170 143 -86 63 -161 120 -168 125 -6 6 -28 23 -48
39 l-38 28 0 93 0 92 38 17 c192 87 237 363 85 519 -60 62 -125 90 -218 93
-44 2 -91 0 -105 -5z m159 -237 c40 -33 50 -85 26 -130 -44 -82 -167 -75 -195
12 -35 106 84 189 169 118z"/>
<path d="M2945 6760 c-228 -90 -282 -389 -100 -549 21 -18 53 -40 71 -49 22
-10 34 -23 35 -36 0 -12 2 -217 3 -456 2 -239 3 -443 4 -454 1 -10 99 -115
217 -234 l215 -215 2 -196 3 -196 105 0 105 0 3 215 c2 118 0 229 -3 245 -4
23 -58 84 -220 245 l-215 215 0 422 0 421 46 27 c61 36 109 86 142 149 23 44
27 63 27 136 0 71 -4 94 -26 140 -56 119 -152 182 -284 187 -62 2 -91 -1 -130
-17z m168 -211 c69 -31 76 -143 11 -185 -70 -46 -168 4 -168 85 1 85 79 136
157 100z"/>
<path d="M5151 6769 c-79 -24 -166 -104 -203 -187 -33 -72 -30 -192 5 -264 32
-65 93 -129 148 -153 l39 -18 0 -86 0 -86 -192 -97 c-213 -108 -223 -114 -236
-149 -5 -13 -9 -224 -8 -469 l1 -445 108 -2 107 -2 1 27 c0 15 0 197 1 405 l0
378 198 99 c123 61 206 109 219 126 19 24 21 39 21 163 l0 136 38 18 c56 27
117 90 149 155 24 48 28 69 27 137 0 94 -30 167 -91 229 -62 62 -125 89 -218
92 -44 2 -95 -1 -114 -7z m168 -235 c104 -87 -23 -248 -133 -167 -83 60 -39
193 64 193 27 0 48 -8 69 -26z"/>
<path d="M6342 6762 c-66 -24 -118 -65 -159 -126 -106 -155 -56 -370 106 -463
25 -15 48 -28 51 -30 2 -2 4 -89 5 -193 l0 -188 -245 -97 c-253 -100 -299
-127 -301 -178 -4 -88 -3 -1100 1 -1106 3 -3 52 -6 110 -6 l105 -1 0 501 c-1
275 1 505 3 512 2 6 112 55 245 108 133 52 249 101 258 108 39 30 42 55 42
299 l0 238 41 24 c157 92 217 268 146 428 -26 60 -95 129 -158 158 -66 32
-179 37 -250 12z m161 -213 c51 -23 71 -94 41 -150 -48 -93 -192 -57 -197 48
-3 86 77 138 156 102z"/>
<path d="M1109 6342 c-13 -2 -15 -30 -15 -219 l1 -217 98 0 c55 -1 104 2 109
5 14 9 17 429 3 430 -27 3 -182 4 -196 1z"/>
<path d="M2412 6230 c-12 -8 -8 -430 3 -431 65 -6 205 -2 208 6 3 9 1 379 -2
415 -1 13 -19 15 -102 15 -55 0 -104 -2 -107 -5z"/>
<path d="M3500 5853 c0 -306 -9 -275 75 -275 19 0 59 1 89 1 l55 1 -2 272 -2
273 -107 0 -108 0 0 -272z"/>
<path d="M224 5103 c2 -142 5 -270 5 -285 l1 -27 108 2 107 3 -3 235 c-2 129
-5 254 -5 279 l-2 45 -108 3 -108 3 5 -258z"/>
<path d="M5252 4868 l3 -493 105 0 105 0 3 493 2 492 -110 0 -110 0 2 -492z"/>
<path d="M3939 5128 c-5 -78 0 -740 5 -746 9 -8 205 -10 207 -2 1 3 2 175 3
383 l2 377 -108 0 c-79 0 -108 -3 -109 -12z"/>
<path d="M1600 4913 c-344 -49 -622 -183 -845 -408 -168 -168 -279 -347 -349
-563 -52 -159 -70 -275 -70 -447 1 -142 12 -233 44 -355 41 -156 122 -330 217
-463 120 -169 339 -358 518 -449 129 -66 295 -116 450 -138 84 -11 265 -14
331 -5 247 35 414 92 602 207 217 133 402 333 519 563 l48 95 273 0 272 0 164
109 163 109 164 -109 c162 -107 164 -108 189 -92 14 9 87 58 164 109 138 92
138 92 165 76 14 -10 88 -59 164 -109 l137 -93 165 110 166 110 164 -110 165
-110 157 106 c87 58 160 107 163 109 3 2 80 -45 170 -105 90 -60 165 -108 166
-107 44 48 433 544 431 550 -1 5 -99 130 -217 278 l-215 269 -1585 0 -1585 0
-52 103 c-106 206 -282 402 -474 528 -164 108 -324 172 -549 220 -52 10 -337
19 -390 12z"/>
<path d="M4705 4575 c-3 -18 -1 -165 3 -190 1 -7 42 -11 107 -10 l105 0 1 70
c0 39 1 85 2 103 1 19 -2 36 -7 40 -5 3 -54 6 -108 6 -91 1 -99 -1 -103 -19z"/>
<path d="M3402 2622 c-9 -3 -12 -62 -12 -239 l0 -236 220 -222 220 -221 0
-142 0 -142 109 0 108 0 0 173 c0 94 -4 183 -9 197 -5 14 -102 118 -216 232
l-207 207 -5 198 -5 198 -95 1 c-53 0 -101 -1 -108 -4z"/>
<path d="M4049 2610 c-3 -60 -1 -411 3 -416 4 -4 140 -7 198 -5 13 1 15 31 15
218 l0 217 -107 1 c-91 1 -108 -2 -109 -15z"/>
<path d="M4601 2620 c-4 -3 -8 -174 -7 -380 l1 -375 108 -3 c105 -3 107 -2
108 20 3 170 0 731 -5 736 -9 8 -193 10 -205 2z"/>
<path d="M5143 2614 c-2 -6 -3 -92 -1 -189 l3 -177 75 -70 c96 -90 112 -104
310 -283 91 -82 185 -168 210 -191 25 -22 77 -69 115 -104 39 -35 72 -66 75
-70 3 -3 28 -25 55 -49 106 -94 241 -218 300 -276 l61 -60 -1 -143 -1 -143
-51 -29 c-227 -130 -219 -457 14 -576 51 -26 68 -29 148 -29 100 0 150 18 217
79 165 148 133 421 -62 529 l-45 25 -1 184 c-1 196 -5 214 -53 256 -14 13 -64
59 -111 102 -47 43 -96 88 -110 100 -14 12 -45 40 -70 63 -25 23 -70 65 -100
92 -31 28 -98 89 -150 137 -52 47 -104 95 -116 105 -12 10 -127 114 -257 232
l-236 215 -3 140 -3 141 -103 1 c-74 0 -105 -3 -109 -12z m1374 -1979 c43 -29
56 -95 26 -145 -44 -74 -163 -63 -190 17 -35 102 74 187 164 128z"/>
<path d="M5799 2615 c-1 -5 -2 -57 -2 -114 -3 -159 -2 -160 178 -251 l150 -76
7 -43 c17 -102 90 -194 188 -240 80 -38 192 -37 272 2 273 133 239 524 -53
610 -101 30 -233 -4 -311 -80 l-37 -36 -88 43 -88 43 0 69 c1 37 -1 72 -4 76
-9 12 -211 10 -212 -3z m718 -340 c43 -29 56 -95 26 -145 -41 -70 -150 -64
-188 10 -19 37 -20 31 9 88 13 27 35 53 48 59 29 13 74 8 105 -12z"/>
<path d="M2847 2183 c-2 -4 -4 -170 -3 -368 l1 -360 -54 -110 -54 -110 -1
-187 c-1 -103 -4 -189 -6 -191 -3 -2 -26 -15 -51 -30 -59 -34 -106 -87 -136
-155 -73 -166 12 -367 185 -432 74 -28 190 -23 259 13 124 64 190 177 181 311
-8 116 -59 201 -157 261 l-58 36 0 157 0 157 55 112 55 112 -1 373 c0 205 -1
383 -1 394 -1 21 -6 22 -105 23 -58 1 -106 -2 -109 -6z m30 -1533 c8 0 28 -13
44 -29 51 -51 33 -147 -32 -170 -69 -24 -120 -5 -145 54 -13 32 -7 80 14 112
11 17 74 43 90 38 8 -3 20 -5 29 -5z"/>
<path d="M985 1739 c0 -66 -2 -124 -5 -129 -3 -4 -108 -49 -235 -100 -126 -51
-242 -99 -257 -108 -46 -27 -51 -55 -52 -307 l-1 -234 -61 -39 c-108 -70 -161
-177 -151 -301 10 -119 72 -212 179 -268 46 -24 64 -28 143 -28 80 0 96 3 148
29 32 17 73 47 92 67 56 62 74 106 89 213 4 32 -15 118 -35 158 -28 55 -76
105 -128 135 -25 15 -48 28 -50 30 -3 2 -5 87 -6 189 0 175 1 185 20 197 11 7
121 52 245 101 227 89 279 119 281 164 3 67 4 329 1 340 -3 8 -34 12 -111 12
l-107 0 1 -121z m-381 -1103 c31 -20 56 -65 51 -92 -2 -10 -4 -24 -4 -31 -1
-6 -15 -25 -32 -42 -68 -69 -179 -19 -179 81 0 42 23 76 63 93 38 16 68 13
101 -9z"/>
<path d="M1530 1586 l0 -165 110 0 110 -1 0 165 0 165 -110 0 -110 0 0 -164z"/>
<path d="M2079 1703 c0 -27 0 -110 0 -185 l0 -137 -192 -96 c-106 -53 -203
-108 -217 -121 -24 -23 -25 -30 -28 -168 l-3 -143 -38 -16 c-21 -10 -57 -36
-80 -60 -197 -197 -77 -531 200 -554 85 -7 147 9 215 56 130 89 177 267 108
408 -30 63 -89 123 -144 148 l-40 18 0 87 0 86 205 103 c181 90 207 106 219
135 10 23 13 91 13 259 l0 227 -109 0 -108 0 -1 -47z m-263 -1070 c29 -18 48
-74 39 -113 -4 -16 -20 -41 -37 -55 -92 -78 -222 36 -158 139 32 53 100 66
156 29z"/>
<path d="M4594 1512 c2 -108 5 -131 21 -152 10 -14 133 -92 272 -175 l252
-150 1 -91 0 -91 -40 -18 c-56 -25 -114 -85 -146 -152 -24 -48 -28 -69 -28
-137 0 -67 5 -90 27 -137 55 -114 150 -178 276 -186 105 -7 175 20 252 96 112
112 127 280 37 413 -33 48 -94 100 -135 112 -21 7 -22 13 -25 151 -3 137 -4
145 -28 170 -14 15 -41 35 -60 46 -19 10 -52 29 -72 41 -51 32 -315 191 -338
203 -45 27 -51 37 -50 94 3 100 13 91 -109 91 l-109 0 2 -128z m714 -873 c59
-37 65 -125 12 -172 -29 -25 -39 -29 -77 -24 -81 9 -122 78 -88 150 27 58 100
79 153 46z"/>
<path d="M3840 1202 c-6 -2 -10 -70 -10 -176 l0 -172 -32 -12 c-38 -14 -106
-73 -135 -117 -81 -121 -62 -305 41 -408 89 -89 232 -121 347 -78 192 72 272
309 165 480 -30 47 -92 103 -134 120 -17 7 -32 21 -33 30 0 9 -1 88 -2 175
l-2 160 -98 0 c-53 1 -102 0 -107 -2z m157 -568 c67 -43 59 -157 -13 -184 -85
-33 -163 25 -151 112 11 81 93 117 164 72z"/>
</g>
</svg>
