<?xml version="1.0" encoding="utf-8"?>
<svg height="0px" width="512" viewBox="-300 0 1112 358.658" xmlns="http://www.w3.org/2000/svg">
  <path d="M 488.059 106.489 L 456.059 146.489 L 432.059 130.489 L 408.059 146.489 L 384.059 130.489 L 360.059 146.489 L 336.059 130.489 L 312.059 146.489 L 288.059 130.489 L 264.059 146.489 L 224.059 146.489 C 193.267 220.237 94.188 232.995 45.717 169.455 C -2.754 105.915 35.736 13.73 114.999 3.523 C 161.385 -2.45 206.039 23.331 224.059 66.489 L 456.059 66.489 Z" fill="#ffb531"/>
  <path d="M 488.011 106.418 L 456.011 146.418 L 432.011 130.418 L 408.011 146.418 L 384.011 130.418 L 360.011 146.418 L 336.011 130.418 L 312.011 146.418 L 288.011 130.418 L 264.011 146.418 L 224.011 146.418 C 198.977 206.476 125.571 229.068 71.101 193.478 L 213.831 47.708 C 217.857 53.578 221.268 59.848 224.011 66.418 L 456.011 66.418 Z" fill="#ffa912"/>
  <circle cx="87.994" cy="106.436" fill="#e8770c" r="24"/>
  <path d="M 239.994 146.435 L 263.994 146.435 L 287.994 130.435 L 311.994 146.435 L 335.994 130.435 L 359.994 146.435 L 383.994 130.435 L 407.994 146.435 L 431.994 130.435 L 455.994 146.435 L 487.994 106.435 L 239.994 106.435 Z" fill="#f7a116"/>
  <path d="M 208.785 300.156 L 208.785 276.569 L 215.941 262.26 C 216.496 261.149 216.785 259.924 216.785 258.682 L 216.785 202.682 L 200.785 202.682 L 200.785 256.795 L 193.629 271.104 C 193.073 272.215 192.784 273.44 192.785 274.682 L 192.785 300.156 C 175.366 306.314 171.146 329.019 185.189 341.025 C 199.231 353.031 221.004 345.333 224.38 327.169 C 226.539 315.553 219.923 304.094 208.785 300.156 Z M 200.785 330.682 C 194.626 330.682 190.777 324.015 193.856 318.682 C 196.936 313.348 204.634 313.348 207.713 318.682 C 208.415 319.898 208.785 321.277 208.785 322.682 C 208.778 327.098 205.2 330.676 200.785 330.682 Z" style="fill: rgb(255, 255, 255);"/>
  <path d="M 391.994 299.91 L 391.994 282.436 C 391.993 279.626 390.519 277.023 388.111 275.577 L 351.994 253.905 L 351.994 242.436 L 335.994 242.436 L 335.994 258.436 C 335.994 261.245 337.468 263.849 339.877 265.295 L 375.994 286.967 L 375.994 299.91 C 358.575 306.068 354.355 328.773 368.398 340.779 C 382.44 352.785 404.213 345.087 407.589 326.923 C 409.748 315.307 403.132 303.848 391.994 299.91 Z M 383.994 330.436 C 377.835 330.436 373.986 323.769 377.065 318.436 C 380.145 313.102 387.843 313.102 390.922 318.436 C 391.624 319.652 391.994 321.031 391.994 322.436 C 391.987 326.852 388.409 330.43 383.994 330.436 Z" style="fill: rgb(255, 255, 255);"/>
  <path d="M 466.911 299.897 L 466.911 274.423 C 466.912 272.17 465.961 270.021 464.294 268.505 L 378.911 190.884 L 378.911 170.423 L 362.911 170.423 L 362.911 194.423 C 362.91 196.676 363.86 198.825 365.528 200.341 L 450.911 277.962 L 450.911 299.897 C 433.492 306.055 429.272 328.76 443.315 340.766 C 457.358 352.772 479.131 345.074 482.507 326.91 C 484.666 315.294 478.05 303.835 466.911 299.897 Z M 458.911 330.423 C 452.752 330.423 448.903 323.756 451.983 318.423 C 455.062 313.09 462.76 313.09 465.839 318.423 C 466.541 319.639 466.911 321.019 466.911 322.423 C 466.905 326.839 463.327 330.417 458.911 330.423 Z" style="fill: rgb(255, 255, 255);"/>
  <path d="M 277.335 299.901 L 277.335 274.427 L 261.335 274.427 L 261.335 299.901 C 243.916 306.059 239.696 328.764 253.739 340.77 C 267.782 352.776 289.555 345.078 292.931 326.914 C 295.09 315.298 288.474 303.839 277.335 299.901 Z M 269.335 330.427 C 263.176 330.427 259.327 323.76 262.407 318.427 C 265.486 313.093 273.184 313.093 276.263 318.427 C 276.965 319.643 277.335 321.023 277.335 322.427 C 277.329 326.843 273.751 330.421 269.335 330.427 Z" style="fill: rgb(255, 255, 255);"/>
  <path d="M 261.173 258.435 L 277.173 258.435 L 277.173 234.435 C 277.172 232.313 276.329 230.278 274.829 228.779 L 245.173 199.123 L 245.173 170.435 L 229.173 170.435 L 229.173 202.435 C 229.173 204.556 230.016 206.591 231.517 208.091 L 261.173 237.747 Z" style="fill: rgb(255, 255, 255);"/>
  <path d="M 157.468 261.63 L 129.89 275.419 C 127.18 276.774 125.468 279.545 125.468 282.575 L 125.468 300.049 C 108.049 306.207 103.829 328.912 117.872 340.918 C 131.915 352.924 153.688 345.226 157.064 327.062 C 159.223 315.446 152.607 303.987 141.468 300.049 L 141.468 287.52 L 169.046 273.731 C 171.756 272.376 173.468 269.605 173.468 266.575 L 173.468 234.575 L 157.468 234.575 Z M 133.468 330.575 C 127.309 330.575 123.46 323.908 126.54 318.575 C 129.619 313.241 137.317 313.241 140.396 318.575 C 141.098 319.791 141.468 321.171 141.468 322.575 C 141.462 326.991 137.884 330.569 133.468 330.575 Z" style="fill: rgb(255, 255, 255);"/>
  <path d="M 63.67 245.141 L 28.697 259.129 C 25.661 260.347 23.671 263.288 23.67 266.559 L 23.67 300.033 C 6.251 306.191 2.031 328.896 16.074 340.902 C 30.117 352.908 51.89 345.21 55.266 327.046 C 57.425 315.43 50.809 303.971 39.67 300.033 L 39.67 271.977 L 74.643 257.989 C 77.678 256.771 79.668 253.83 79.67 250.559 L 79.67 216.801 L 63.67 216.801 L 63.67 245.141 Z M 31.67 330.559 C 25.511 330.559 21.662 323.892 24.742 318.559 C 27.821 313.225 35.519 313.225 38.598 318.559 C 39.3 319.775 39.67 321.155 39.67 322.559 C 39.664 326.975 36.086 330.553 31.67 330.559 Z" style="fill: rgb(255, 255, 255);"/>
  <path d="M 335.994 170.435 L 351.994 170.435 L 351.994 226.435 L 335.994 226.435 Z" style="fill: rgb(255, 255, 255);"/>
  <path d="M 307.951 170.435 L 323.68 170.435 L 323.68 214.654 L 307.951 214.654 L 307.951 170.435 Z" style="fill: rgb(255, 255, 255);"/>
  <path d="M 111.994 234.435 L 127.994 234.435 L 127.994 258.435 L 111.994 258.435 Z" style="fill: rgb(255, 255, 255);"/>
  <path d="M 563.495 300.535 L 563.495 275.061 C 563.496 272.808 562.545 270.659 560.878 269.143 L 439.585 190.61 L 439.585 170.149 L 423.585 170.149 L 423.585 194.149 C 423.584 196.402 424.534 198.551 426.202 200.067 L 547.495 278.6 L 547.495 300.535 C 530.076 306.693 525.856 329.398 539.899 341.404 C 553.942 353.41 575.715 345.712 579.091 327.548 C 581.25 315.932 574.634 304.473 563.495 300.535 Z M 555.495 331.061 C 549.336 331.061 545.487 324.394 548.567 319.061 C 551.646 313.728 559.344 313.728 562.423 319.061 C 563.125 320.277 563.495 321.657 563.495 323.061 C 563.489 327.477 559.911 331.055 555.495 331.061 Z" style="fill: rgb(255, 255, 255);"/>
  <path d="M 468.057 170.604 L 484.057 170.604 L 484.057 195.658 L 468.057 195.658 L 468.057 170.604 Z" style="fill: rgb(255, 255, 255);"/>
  <path d="M 510.072 113.433 L 526.072 113.433 L 526.072 169.433 L 510.072 169.433 Z" style="fill: rgb(255, 255, 255);"/>
  <path d="M 642.409 300.695 L 642.409 283.221 C 642.408 280.411 640.934 277.808 638.526 276.362 L 526.278 199.958 L 526.278 188.489 L 510.278 188.489 L 510.278 204.489 C 510.278 207.298 511.752 209.902 514.161 211.348 L 626.409 287.752 L 626.409 300.695 C 608.99 306.853 604.77 329.558 618.813 341.564 C 632.855 353.57 654.259 346 657.635 327.836 C 659.794 316.22 653.547 304.633 642.409 300.695 Z M 634.409 331.221 C 628.25 331.221 624.401 324.554 627.48 319.221 C 630.56 313.887 638.258 313.887 641.337 319.221 C 642.039 320.437 642.409 321.816 642.409 323.221 C 642.402 327.637 638.824 331.215 634.409 331.221 Z" style="fill: rgb(255, 255, 255);"/>
  <path d="M 15.579 221.203 L -37.07 259.71 C -40.106 260.928 -42.096 263.869 -42.097 267.14 L -42.097 300.614 C -59.516 306.772 -63.736 329.477 -49.693 341.483 C -35.65 353.489 -13.877 345.791 -10.501 327.627 C -8.342 316.011 -14.958 304.552 -26.097 300.614 L -26.097 272.558 L 26.552 234.051 C 29.587 232.833 31.577 229.892 31.579 226.621 L 31.579 186.808 L 15.579 186.808 L 15.579 221.203 Z M -34.097 331.14 C -40.256 331.14 -44.105 324.473 -41.025 319.14 C -37.946 313.806 -30.248 313.806 -27.169 319.14 C -26.467 320.356 -26.097 321.736 -26.097 323.14 C -26.103 327.556 -29.681 331.134 -34.097 331.14 Z" style="fill: rgb(255, 255, 255);"/>
  <path d="M 277.025 169.984 L 293.025 169.984 L 293.025 201.984 L 277.025 201.984 Z" style="fill: rgb(255, 255, 255);"/>
  <path d="M -24.937 209.02 L -116.173 275.361 C -118.883 276.716 -120.595 279.487 -120.595 282.517 L -120.595 299.991 C -138.014 306.149 -142.234 328.854 -128.191 340.86 C -114.148 352.866 -92.375 345.168 -88.999 327.004 C -86.84 315.388 -93.456 303.929 -104.595 299.991 L -104.595 287.462 L -13.359 221.121 C -10.649 219.766 -8.937 216.995 -8.937 213.965 L -8.937 147.829 L -24.937 147.829 L -24.937 209.02 Z M -112.595 330.517 C -118.754 330.517 -122.603 323.85 -119.523 318.517 C -116.444 313.183 -108.746 313.183 -105.667 318.517 C -104.965 319.733 -104.595 321.113 -104.595 322.517 C -104.601 326.933 -108.179 330.511 -112.595 330.517 Z" style="fill: rgb(255, 255, 255);"/>
</svg>